<?xml version="1.0" encoding="utf-8"?>
<!-- Svg Vector Icons : http://www.onlinewebfonts.com/icon -->
<!DOCTYPE svg PUBLIC "-//W3C//DTD SVG 1.1//EN" "http://www.w3.org/Graphics/SVG/1.1/DTD/svg11.dtd">
<svg version="1.1" xmlns="http://www.w3.org/2000/svg" xmlns:xlink="http://www.w3.org/1999/xlink" x="0px" y="0px" viewBox="0 0 1000 1000" enable-background="new 0 0 1000 1000" xml:space="preserve" fill="#FFFFFF">
<metadata> Svg Vector Icons : http://www.onlinewebfonts.com/icon </metadata>
<g><path d="M668.7,600.2c-9.5-16.3-20.9-19.1-37.2-9.4c-13.1,7.9-26.5,15.5-39.8,23.2c-12.6,7.1-16.6,20.1-9.4,32.6c29.8,51.7,59.6,103.4,89.6,155c6.5,11.1,19.1,14.7,30.2,8.5c16-9,31.7-18.5,47.4-27.8c6.9-4.1,10.1-10.3,11-18.6c-1.5-4-2.4-8.3-4.5-11.9C727,701.2,697.9,650.6,668.7,600.2z"/><path d="M389,156.5c-16.3,8.9-32.6,18.2-48.4,27.9c-10.8,6.7-13.3,19.4-6.8,30.7c9.3,16.5,18.8,32.8,28.2,49.2c20.5,35.6,41.1,71.2,61.7,106.7c5.8,9.9,18.7,13.9,28.3,8.4c16.4-9,32.5-18.6,48.5-28c6.8-4.1,10.3-10.2,11-18.5c-1.1-3.8-1.6-8.1-3.5-11.4c-29.9-52.1-59.9-104.1-89.9-156C411.8,154.5,400.2,150.6,389,156.5z"/><path d="M499.9,10C229.8,10,10,229.8,10,500s219.8,490,489.9,490c0.7,0,1.3-0.1,2-0.1c2.4,0,5,0.1,7.3,0.1c75.3,0,123.5-17.9,146.7-54.2c26.1-40.7,8.7-89.2-2.1-111.8c1.4-0.7,2.8-1.5,4.3-2.2c4-1.9,4.7-4.7,2.3-8.6c-5-8.4-9.6-17-14.4-25.4c-25-43.2-50.2-86.4-75.1-129.8c-2.4-4.2-4.2-6-9.3-3.7c-24.2,10.8-47.1,5.4-69-7.2c-20.9-12.1-37.5-29.1-51.9-48.1c-31.5-41.5-53.5-87-58.1-139.6c-2.4-29.7,2.8-56.8,30-75.6c-15.9-27.8-31.3-54.7-46.8-81.7c-15.1-26.2-30.1-52.4-45.2-78.7c-2.8-4.8-5.6-6.7-10.9-2.7c-6.5,4.8-13.8,8.6-20.5,13.1c-33,21.3-50.1,50.7-49.9,90.8c0.4,44,9.6,86.1,22.8,127.5c13.7,43.1,32.1,84.3,53.3,124.4C345,631.9,379.2,684.1,420,732.1c30,35.4,63,67.6,102.3,92.7c24.7,15.8,51.1,26,81.4,19.4c1.6-0.3,3-0.9,4.6-1.3c6.3,12.5,19.9,44.7,6.1,66.3c-10.8,16.9-49.1,42.8-183.1,25.9v0.1c-210.5-33-372-215.7-372-435.2c0-242.9,197.8-440.7,440.6-440.7c243,0,440.7,197.8,440.7,440.7c0,96.1-30.3,187.5-87.9,264.1c-8.1,10.9-5.9,26.4,5,34.5c10.9,8.1,26.3,6,34.5-4.8c64-85.4,97.8-187,97.8-293.8C990,229.8,770.2,10,499.9,10z"/></g>
</svg>